<?xml version="1.0" encoding="UTF-8"?>
<!DOCTYPE svg PUBLIC "-//W3C//DTD SVG 1.1//EN" "http://www.w3.org/Graphics/SVG/1.1/DTD/svg11.dtd">
<!-- Creator: CorelDRAW -->
<svg xmlns="http://www.w3.org/2000/svg" xml:space="preserve" width="512px" height="512px" version="1.1" style="shape-rendering:geometricPrecision; text-rendering:geometricPrecision; image-rendering:optimizeQuality; fill-rule:evenodd; clip-rule:evenodd"
viewBox="0 0 512 512"
 xmlns:xlink="http://www.w3.org/1999/xlink"
 xmlns:xodm="http://www.corel.com/coreldraw/odm/2003">
 <defs>
  <style type="text/css">
   <![CDATA[
    .fil0 {fill:url(#id0)}
   ]]>
  </style>
  <linearGradient id="id0" gradientUnits="userSpaceOnUse" x1="256" y1="66" x2="256" y2="446">
   <stop offset="0" style="stop-opacity:1; stop-color:#5CC6D0"/>
   <stop offset="0.490196" style="stop-opacity:1; stop-color:#A53692"/>
   <stop offset="1" style="stop-opacity:1; stop-color:#F06277"/>
  </linearGradient>
 </defs>
 <g id="Layer_x0020_1">
  <metadata id="CorelCorpID_0Corel-Layer"/>
  <path class="fil0" d="M224.06 392.3c-10.9,0 -21.2,-8.2 -23.7,-19.8 -0.1,-0.3 -0.1,-0.5 -0.1,-0.8 -1.4,-13.9 7.3,-25.9 20.6,-28.6 0.19,0 0.4,-0.1 0.6,-0.1 12.4,-1.4 24.79,7.8 27.6,20.4 0.1,0.3 0.1,0.5 0.1,0.8 0.7,6.6 -1,13.1 -4.7,18.2 -3.9,5.3 -9.6,8.7 -16.2,9.4 -1.4,0.4 -2.8,0.5 -4.2,0.5zm268.1 53.7l-440 0c-3.9,0 -7.01,-3.1 -7.01,-7l0 -31c0,-3.9 3.11,-7 7.01,-7l93 0 0 -11.7 -42.4 -34.9c-1.5,-1.2 -2.4,-2.9 -2.51,-4.8 -0.1,-1.9 0.41,-3.7 1.7,-5.2l40.1 -46.9 53.5 -165.4c8,-31.9 23.81,-37.8 48.8,-44.8l73.97 -20.71c0.86,-0.38 1.82,-0.59 2.83,-0.59l65 0c3.9,0 7,3.1 7,7l0 15c0,11.9 -10.1,22 -22,22l-35 0c-3.03,0 -5.94,-0.66 -8.6,-1.83l-72.3 -9.27 -0.27 -0.04 -6.93 1.94c-23.2,6.5 -32.9,10.1 -39.1,35 0,0.2 -0.1,0.3 -0.1,0.5l-54 167c-0.3,0.9 -0.7,1.7 -1.3,2.4l-36.39 42.4 39.5 32.5c1.6,1.3 2.6,3.3 2.6,5.4l0 15 34.25 0c-5.52,-5.3 -9.55,-11.91 -11.79,-19.34 -2.63,0.21 -5.08,0.34 -7.36,0.34 -7.3,0 -12.8,-1.3 -16.9,-4.9 -6,-5.2 -7,-13.3 -8.5,-24.6 -0.5,-3.6 -1.01,-7.7 -1.7,-12.3 -2.5,-14.3 7.3,-35.9 22.1,-39.9l67.59 -17.6 51.8 -43c13.3,-10.9 57.8,-17.9 71.1,-19.8 27.3,-3.8 61.9,-6.3 77.4,-1.5 12,3.5 24,9.3 34.7,14.3 4.7,2.2 9.1,4.3 12.8,5.9 29.2,10.9 31.1,48.6 23.2,80.2 -0.6,2.6 -2.7,4.5 -5.2,5.1l-16.22 3.68c0.03,22.52 -16.06,42.13 -38.38,45.32 -2.3,0.4 -4.5,0.5 -6.7,0.5 -18.2,0 -34.56,-10.64 -41.76,-26.6l-129.91 21.04c0.19,9.51 -2.77,18.79 -8.62,26.66 -1.77,2.36 -3.74,4.53 -5.89,6.5l236.89 0c3.9,0 7,3.1 7,7l0 31c-0.01,3.9 -3.1,7 -7,7zm-433 -14l425.99 0 0 -17 -332.99 0 -93 0 0 17zm254.99 -349.71l-24.6 6.89 25.07 3.21c-0.31,-1.42 -0.47,-2.89 -0.47,-4.39l0 -5.71zm14 -2.29l0 8c0,2.6 1.57,5.11 3.76,6.61l3.04 0.39c1.03,0.13 1.97,0.48 2.79,1l33.41 0c4.1,0 8,-3.9 8,-8l0 -8 -51 0zm-247.99 301c-0.6,0 -1.2,-0.1 -1.9,-0.3l-40.01 -11c-2.59,-0.7 -4.6,-2.9 -5.1,-5.6 -0.49,-2.7 0.71,-5.4 3,-6.9l34.91 -23.2 -48.9 0c-2.81,0 -5.4,-1.7 -6.5,-4.3 -1.1,-2.6 -0.5,-5.6 1.5,-7.6l26.2 -26.2 -41.4 -44.1c-2.2,-2.3 -2.5,-5.8 -0.9,-8.5 1.7,-2.7 4.9,-3.9 7.9,-3.1l84.7 24.8 -19.1 -44.3c-1.2,-2.8 -0.5,-6 1.8,-8 2.3,-2 5.5,-2.3 8.1,-0.8l59 34c3.3,1.9 4.5,6.2 2.6,9.6 -1.9,3.3 -6.2,4.5 -9.6,2.6l-40.7 -23.5 16.7 38.6c1.1,2.5 0.6,5.4 -1.2,7.4 -1.8,2 -4.6,2.8 -7.2,2.1l-74.3 -21.8 28.4 30.3c2.59,2.8 2.5,7.1 -0.2,9.7l-18.9 19.1 55.1 0c3.1,0 5.8,2 6.7,5 0.9,3 -0.3,6.1 -2.8,7.9l-41.21 27.5 25.2 6.9c3.71,1 5.9,4.9 4.91,8.6 -0.9,3.1 -3.7,5.1 -6.8,5.1zm392.15 -57.6c-0.05,-0.26 -0.09,-0.51 -0.12,-0.76 -2.68,-16.31 -18.96,-28.02 -35.94,-25.74 -17.4,3.4 -28.7,18.9 -26.2,36.1 1.2,8.2 5.6,15.4 12.4,20.3 6.8,4.9 15.3,7 23.7,5.8 8.2,-1.2 15.4,-5.6 20.3,-12.4 4.82,-6.69 6.94,-14.92 5.86,-23.28l0 -0.02zm12.01 -9.71l11.03 -2.49c2.7,-13.3 8.1,-50.8 -15.6,-59.6 -0.1,0 -0.2,-0.1 -0.3,-0.1 -4,-1.7 -8.7,-3.9 -13.5,-6.2 -10.2,-4.8 -21.7,-10.3 -32.7,-13.5 -10.8,-3.3 -39.5,-2.5 -71.4,2 -36.4,5.1 -58.7,12.3 -64.2,16.7l-53 44c-0.8,0.7 -1.7,1.1 -2.7,1.4l-69 18c-6.5,1.8 -13.4,15.7 -11.9,24 0,0 0,0.1 0,0.1 0.8,4.8 1.3,9.1 1.8,12.8 1,7.9 1.8,14.1 3.7,15.8 1.94,1.68 7.89,1.64 12.97,1.28 -0.18,-9.36 2.66,-18.5 8.24,-26.38 7.2,-10 18.2,-16.8 30.4,-18.5 12,-1.7 23.9,1.2 33.4,8.3 7.66,5.73 13.18,13.61 15.97,22.75l128.51 -20.81c-1.19,-11.39 1.76,-22.52 8.51,-31.74 7.01,-9.6 17.4,-16.1 29.3,-18.4 0.1,0 0.2,0 0.3,-0.1 21.98,-3.14 43.39,10.46 50.17,30.69zm-290.36 59.04l0.03 0.18c0.02,0.03 0.04,0.06 0.07,0.09 1.2,8.3 5.4,15.5 12,20.4 6.5,4.8 14.6,6.9 22.9,5.7 17.9,-3.5 29.4,-19.2 26.29,-35.8 0,-0.1 0,-0.2 -0.1,-0.3 -1.19,-8.3 -5.39,-15.5 -11.99,-20.4 -5.2,-3.9 -11.7,-6 -18.3,-6 -1.5,0 -3.1,0.1 -4.7,0.3 -8.4,1.2 -16,5.9 -21,12.8 -4.8,6.8 -6.7,14.9 -5.2,23l0 0.03zm131.19 -81.73c-2.4,0 -4.69,-1.3 -6,-3.4l-16 -27c-1.2,-2 -1.3,-4.5 -0.3,-6.6 1,-2.1 3,-3.6 5.3,-3.9l53 -8 0.09 -0.01 0.08 -0.02 0.02 0 52.81 -7.97c2.3,-0.4 4.7,0.5 6.2,2.2 1.6,1.7 2.2,4.2 1.6,6.4l-8 31c-0.7,2.7 -3,4.8 -5.8,5.2l-40.99 6 -0.01 0c-0.19,0.06 -0.42,0.09 -0.64,0.09l-40.35 5.91c-0.31,0.1 -0.71,0.1 -1.01,0.1zm-4.7 -28.6l8.3 14 29.5 -4.3 -2.1 -15.1 -35.7 5.4zm49.6 -7.5l2.1 15.2 29.4 -4.3 4.2 -16.2 -35.7 5.3zm-32.9 53.1c-3.4,0 -6.3,-2.4 -6.9,-5.9 -0.6,-3.8 1.91,-7.4 5.81,-8.1l12 -2c3.8,-0.6 7.4,1.9 8.1,5.8 0.6,3.8 -1.9,7.4 -5.8,8.1l-12.01 2c-0.4,0.1 -0.8,0.1 -1.2,0.1zm49 -7c-3.3,0 -6.3,-2.4 -6.9,-5.7 -0.7,-3.8 1.8,-7.4 5.6,-8.1l11 -2c3.8,-0.7 7.4,1.8 8.1,5.6 0.7,3.8 -1.8,7.4 -5.6,8.1l-11 2c-0.4,0.1 -0.8,0.1 -1.2,0.1zm56.2 52.1c-12.49,0 -23.59,-9.1 -25.09,-21 -1.2,-6.5 0.3,-13.3 4.2,-18.6 3.79,-5.2 9.49,-8.6 15.7,-9.4 6.6,-1.2 13.1,0.2 18.5,4.2 5.29,3.9 8.8,10 9.49,16.6 2.51,12.3 -6.3,25 -19.39,27.9 -0.3,0.1 -0.5,0.1 -0.8,0.1 -1.01,0.2 -1.81,0.2 -2.61,0.2zm-0.8 -35.4c-0.7,0 -1.3,0.1 -2,0.2 -0.2,0 -0.4,0.1 -0.6,0.1 -2.4,0.3 -4.7,1.6 -6.2,3.7 -1.69,2.3 -2.29,5.1 -1.69,7.9 0,0.2 0.1,0.4 0.1,0.6 0.6,5.2 6.1,9.2 11.9,8.8 5.4,-1.4 9.3,-6.8 8.29,-11.6 -0.1,-0.3 -0.1,-0.5 -0.1,-0.8 -0.3,-3 -1.7,-5.5 -4,-7.2 -1.7,-1.1 -3.6,-1.7 -5.7,-1.7zm-3.4 -6.7l0 0 0 0zm-224.09 58.9c1.39,5.4 6.8,9.3 11.6,8.3 0.3,-0.1 0.49,-0.1 0.79,-0.1 6.3,-0.6 9.2,-6.4 8.81,-11.9 -1.4,-5.4 -6.9,-9.6 -12,-9.2 -5.9,1.3 -9.6,6.5 -9.2,12.9z"/>
 </g>
</svg>
